<mxfile host="app.diagrams.net" modified="2021-05-24T08:10:35.813Z" agent="5.0 (Macintosh; Intel Mac OS X 10_15_7) AppleWebKit/537.36 (KHTML, like Gecko) Chrome/90.0.4430.212 Safari/537.36" etag="cAcpwr9Vd8aSIaW_En1W" version="14.6.13" type="github">
  <diagram id="ccN7N_09izUIwV5RHIzb" name="Page-1">
    <mxGraphModel dx="946" dy="485" grid="1" gridSize="10" guides="1" tooltips="1" connect="1" arrows="1" fold="1" page="1" pageScale="1" pageWidth="827" pageHeight="1169" math="0" shadow="0">
      <root>
        <mxCell id="0" />
        <mxCell id="1" parent="0" />
        <mxCell id="2wdVHHnum5-h_gSSVRwW-1" value="" style="shape=ext;double=1;rounded=0;whiteSpace=wrap;html=1;fillColor=none;" vertex="1" parent="1">
          <mxGeometry x="360" y="40" width="560" height="400" as="geometry" />
        </mxCell>
        <mxCell id="2wdVHHnum5-h_gSSVRwW-4" value="&lt;span style=&quot;text-align: left&quot;&gt;风控平台&lt;/span&gt;" style="shape=umlLifeline;perimeter=lifelinePerimeter;whiteSpace=wrap;html=1;container=1;collapsible=0;recursiveResize=0;outlineConnect=0;rounded=1;shadow=0;comic=0;labelBackgroundColor=none;strokeWidth=1;fontFamily=Verdana;fontSize=12;align=center;" vertex="1" parent="1">
          <mxGeometry x="740" y="80" width="100" height="360" as="geometry" />
        </mxCell>
        <mxCell id="2wdVHHnum5-h_gSSVRwW-5" value="" style="html=1;points=[];perimeter=orthogonalPerimeter;rounded=0;shadow=0;comic=0;labelBackgroundColor=none;strokeWidth=1;fontFamily=Verdana;fontSize=12;align=center;" vertex="1" parent="2wdVHHnum5-h_gSSVRwW-4">
          <mxGeometry x="45" y="250" width="10" height="45" as="geometry" />
        </mxCell>
        <mxCell id="2wdVHHnum5-h_gSSVRwW-6" value="客户端" style="shape=umlLifeline;perimeter=lifelinePerimeter;whiteSpace=wrap;html=1;container=1;collapsible=0;recursiveResize=0;outlineConnect=0;rounded=1;shadow=0;comic=0;labelBackgroundColor=none;strokeWidth=1;fontFamily=Verdana;fontSize=12;align=center;" vertex="1" parent="1">
          <mxGeometry x="440" y="80" width="100" height="360" as="geometry" />
        </mxCell>
        <mxCell id="2wdVHHnum5-h_gSSVRwW-7" value="" style="html=1;points=[];perimeter=orthogonalPerimeter;rounded=0;shadow=0;comic=0;labelBackgroundColor=none;strokeWidth=1;fontFamily=Verdana;fontSize=12;align=center;" vertex="1" parent="2wdVHHnum5-h_gSSVRwW-6">
          <mxGeometry x="45" y="100" width="10" height="200" as="geometry" />
        </mxCell>
        <mxCell id="2wdVHHnum5-h_gSSVRwW-8" value="通过设备信息初始化" style="html=1;verticalAlign=bottom;endArrow=block;labelBackgroundColor=none;fontFamily=Verdana;fontSize=12;entryX=0.1;entryY=0.01;entryDx=0;entryDy=0;entryPerimeter=0;" edge="1" parent="1">
          <mxGeometry relative="1" as="geometry">
            <mxPoint x="495" y="330" as="sourcePoint" />
            <mxPoint x="786" y="330.6" as="targetPoint" />
            <Array as="points">
              <mxPoint x="530" y="330" />
            </Array>
          </mxGeometry>
        </mxCell>
        <mxCell id="2wdVHHnum5-h_gSSVRwW-12" style="edgeStyle=orthogonalEdgeStyle;rounded=0;orthogonalLoop=1;jettySize=auto;html=1;entryX=1;entryY=0.97;entryDx=0;entryDy=0;entryPerimeter=0;" edge="1" parent="1" source="2wdVHHnum5-h_gSSVRwW-5" target="2wdVHHnum5-h_gSSVRwW-7">
          <mxGeometry relative="1" as="geometry">
            <mxPoint x="500" y="374" as="targetPoint" />
            <Array as="points">
              <mxPoint x="710" y="374" />
              <mxPoint x="710" y="374" />
            </Array>
          </mxGeometry>
        </mxCell>
        <mxCell id="2wdVHHnum5-h_gSSVRwW-13" value="返回设备风控策略" style="edgeLabel;html=1;align=center;verticalAlign=middle;resizable=0;points=[];" vertex="1" connectable="0" parent="2wdVHHnum5-h_gSSVRwW-12">
          <mxGeometry x="0.2577" y="-1" relative="1" as="geometry">
            <mxPoint x="33" y="-8" as="offset" />
          </mxGeometry>
        </mxCell>
        <mxCell id="2wdVHHnum5-h_gSSVRwW-23" style="edgeStyle=orthogonalEdgeStyle;rounded=0;orthogonalLoop=1;jettySize=auto;html=1;entryX=1.2;entryY=0.325;entryDx=0;entryDy=0;entryPerimeter=0;" edge="1" parent="1">
          <mxGeometry relative="1" as="geometry">
            <mxPoint x="496" y="219" as="targetPoint" />
            <Array as="points">
              <mxPoint x="529" y="180" />
              <mxPoint x="529" y="220" />
            </Array>
            <mxPoint x="494" y="180" as="sourcePoint" />
          </mxGeometry>
        </mxCell>
        <mxCell id="2wdVHHnum5-h_gSSVRwW-24" value="设备信息采集&lt;br&gt;设备型号、设备ID&lt;br&gt;系统版本信息" style="edgeLabel;html=1;align=center;verticalAlign=middle;resizable=0;points=[];" vertex="1" connectable="0" parent="2wdVHHnum5-h_gSSVRwW-23">
          <mxGeometry x="0.0089" y="1" relative="1" as="geometry">
            <mxPoint x="50" as="offset" />
          </mxGeometry>
        </mxCell>
        <mxCell id="2wdVHHnum5-h_gSSVRwW-25" style="edgeStyle=orthogonalEdgeStyle;rounded=0;orthogonalLoop=1;jettySize=auto;html=1;entryX=1.2;entryY=0.325;entryDx=0;entryDy=0;entryPerimeter=0;" edge="1" parent="1">
          <mxGeometry relative="1" as="geometry">
            <mxPoint x="496" y="279" as="targetPoint" />
            <mxPoint x="494" y="240" as="sourcePoint" />
            <Array as="points">
              <mxPoint x="529" y="240" />
              <mxPoint x="529" y="280" />
            </Array>
          </mxGeometry>
        </mxCell>
        <mxCell id="2wdVHHnum5-h_gSSVRwW-26" value="系统设置信息采集" style="edgeLabel;html=1;align=center;verticalAlign=middle;resizable=0;points=[];" vertex="1" connectable="0" parent="2wdVHHnum5-h_gSSVRwW-25">
          <mxGeometry x="0.0089" y="1" relative="1" as="geometry">
            <mxPoint x="50" y="1" as="offset" />
          </mxGeometry>
        </mxCell>
      </root>
    </mxGraphModel>
  </diagram>
</mxfile>
